<svg  viewBox="0 0 300 369" fill="none" xmlns="http://www.w3.org/2000/svg">
<path d="M132.305 18.75H167.695C170.352 18.75 172.715 20.4297 173.594 22.9297L178.691 37.5H121.309L126.406 22.9297C127.285 20.4297 129.648 18.75 132.305 18.75ZM114.609 18.8086L107.734 38.4375C103.203 40.3125 100 44.7852 100 50V65.625C100 70.2539 102.52 74.2969 106.25 76.4453V87.5C106.25 90.957 109.043 93.75 112.5 93.75H118.75C122.207 93.75 125 90.957 125 87.5V78.125H175V87.5C175 90.957 177.793 93.75 181.25 93.75H187.5C190.957 93.75 193.75 90.957 193.75 87.5V76.4453C197.48 74.2773 200 70.2539 200 65.625V50C200 44.7852 196.797 40.3125 192.266 38.4375L185.391 18.8086C182.754 11.2891 175.664 6.25 167.695 6.25H132.305C124.336 6.25 117.246 11.2891 114.609 18.8086ZM140.625 53.125H159.375C161.094 53.125 162.5 54.5312 162.5 56.25V62.5C162.5 64.2188 161.094 65.625 159.375 65.625H140.625C138.906 65.625 137.5 64.2188 137.5 62.5V56.25C137.5 54.5312 138.906 53.125 140.625 53.125ZM109.375 54.6875C109.375 52.0898 111.465 50 114.062 50H120.312C122.91 50 125 52.0898 125 54.6875C125 57.2852 122.91 59.375 120.312 59.375H114.062C111.465 59.375 109.375 57.2852 109.375 54.6875ZM179.688 50H185.938C188.535 50 190.625 52.0898 190.625 54.6875C190.625 57.2852 188.535 59.375 185.938 59.375H179.688C177.09 59.375 175 57.2852 175 54.6875C175 52.0898 177.09 50 179.688 50Z" fill="#699BF7"/>
<path d="M63.1831 150V147.025C70.2181 140.725 74.3831 135.86 74.3831 131.87C74.3831 129.245 72.9831 127.67 70.4981 127.67C68.6081 127.67 67.0681 128.895 65.7381 130.33L62.9381 127.53C65.3181 124.975 67.6281 123.61 71.1631 123.61C76.0631 123.61 79.3181 126.76 79.3181 131.59C79.3181 136.28 75.4331 141.32 70.7081 145.94C72.0031 145.8 73.7181 145.66 74.9431 145.66H80.5431V150H63.1831ZM91.6784 150.49C86.7434 150.49 83.0334 147.62 83.0334 143.56C83.0334 140.235 85.0634 138.065 87.4784 136.805V136.63C85.4834 135.195 84.0484 133.235 84.0484 130.47C84.0484 126.305 87.3734 123.645 91.8534 123.645C96.4384 123.645 99.3784 126.41 99.3784 130.54C99.3784 133.095 97.7684 135.23 96.0534 136.455V136.63C98.4334 137.925 100.393 140.025 100.393 143.56C100.393 147.48 96.9284 150.49 91.6784 150.49ZM93.3234 135.195C94.5834 133.865 95.1784 132.395 95.1784 130.855C95.1784 128.755 93.9184 127.25 91.7484 127.25C89.9984 127.25 88.5984 128.405 88.5984 130.47C88.5984 132.92 90.5934 134.11 93.3234 135.195ZM91.8184 146.85C94.0234 146.85 95.5984 145.625 95.5984 143.385C95.5984 140.69 93.2184 139.57 89.8584 138.205C88.4584 139.325 87.4784 141.075 87.4784 143C87.4784 145.345 89.4034 146.85 91.8184 146.85ZM111.389 150.49C106.454 150.49 102.744 147.62 102.744 143.56C102.744 140.235 104.774 138.065 107.189 136.805V136.63C105.194 135.195 103.759 133.235 103.759 130.47C103.759 126.305 107.084 123.645 111.564 123.645C116.149 123.645 119.089 126.41 119.089 130.54C119.089 133.095 117.479 135.23 115.764 136.455V136.63C118.144 137.925 120.104 140.025 120.104 143.56C120.104 147.48 116.639 150.49 111.389 150.49ZM113.034 135.195C114.294 133.865 114.889 132.395 114.889 130.855C114.889 128.755 113.629 127.25 111.459 127.25C109.709 127.25 108.309 128.405 108.309 130.47C108.309 132.92 110.304 134.11 113.034 135.195ZM111.529 146.85C113.734 146.85 115.309 145.625 115.309 143.385C115.309 140.69 112.929 139.57 109.569 138.205C108.169 139.325 107.189 141.075 107.189 143C107.189 145.345 109.114 146.85 111.529 146.85ZM136.839 125.535C132.604 125.535 129.909 126.795 129.909 129.105C129.909 131.45 132.604 132.71 136.839 132.71C141.039 132.71 143.734 131.45 143.734 129.105C143.734 126.795 141.039 125.535 136.839 125.535ZM136.839 136.385C129.944 136.385 125.184 133.55 125.184 129.105C125.184 124.73 129.944 121.86 136.839 121.86C143.699 121.86 148.494 124.73 148.494 129.105C148.494 133.55 143.699 136.385 136.839 136.385ZM151.504 138.8V142.51H139.114V153.045H134.494V142.51H122.314V138.8H151.504ZM168.726 150.49C164.631 150.49 161.866 148.95 160.046 146.885L162.461 143.63C164.001 145.135 165.891 146.29 168.236 146.29C170.861 146.29 172.646 144.995 172.646 142.65C172.646 140.13 171.141 138.52 165.506 138.52V134.845C170.266 134.845 171.806 133.2 171.806 130.89C171.806 128.86 170.546 127.67 168.341 127.67C166.486 127.67 164.981 128.51 163.441 129.945L160.816 126.795C163.056 124.835 165.541 123.61 168.586 123.61C173.591 123.61 176.986 126.095 176.986 130.505C176.986 133.305 175.411 135.335 172.681 136.42V136.595C175.586 137.4 177.826 139.57 177.826 142.965C177.826 147.725 173.661 150.49 168.726 150.49ZM189.626 137.33C188.226 137.33 186.581 138.1 185.391 140.06C185.881 144.785 187.631 146.605 189.801 146.605C191.726 146.605 193.336 144.995 193.336 141.81C193.336 138.765 191.866 137.33 189.626 137.33ZM189.906 150.49C184.971 150.49 180.596 146.535 180.596 137.4C180.596 127.74 185.391 123.61 190.606 123.61C193.791 123.61 196.066 124.94 197.641 126.55L194.911 129.63C194.001 128.58 192.426 127.74 190.921 127.74C187.946 127.74 185.496 129.98 185.286 136.49C186.686 134.74 188.926 133.69 190.606 133.69C194.946 133.69 198.026 136.28 198.026 141.81C198.026 147.13 194.316 150.49 189.906 150.49ZM208.217 150.49C204.122 150.49 201.392 148.88 199.467 146.955L201.847 143.665C203.317 145.1 205.137 146.29 207.552 146.29C210.247 146.29 212.137 144.575 212.137 141.53C212.137 138.52 210.387 136.84 207.762 136.84C206.222 136.84 205.382 137.225 203.877 138.205L201.532 136.665L202.232 124.065H216.092V128.405H206.677L206.187 133.9C207.237 133.41 208.112 133.165 209.302 133.165C213.642 133.165 217.282 135.755 217.282 141.39C217.282 147.165 213.012 150.49 208.217 150.49ZM228.592 150.49C223.307 150.49 219.807 145.87 219.807 136.945C219.807 127.985 223.307 123.61 228.592 123.61C233.877 123.61 237.342 128.02 237.342 136.945C237.342 145.87 233.877 150.49 228.592 150.49ZM228.592 146.465C230.832 146.465 232.477 144.225 232.477 136.945C232.477 129.7 230.832 127.6 228.592 127.6C226.352 127.6 224.672 129.7 224.672 136.945C224.672 144.225 226.352 146.465 228.592 146.465Z" fill="#FF2F21"/>
<rect x="0.5" y="170.5" width="299" height="198" rx="3.5" fill="white" stroke="#FF2F21"/>
<path d="M201.031 210V208.3C205.051 204.7 207.431 201.92 207.431 199.64C207.431 198.14 206.631 197.24 205.211 197.24C204.131 197.24 203.251 197.94 202.491 198.76L200.891 197.16C202.251 195.7 203.571 194.92 205.591 194.92C208.391 194.92 210.251 196.72 210.251 199.48C210.251 202.16 208.031 205.04 205.331 207.68C206.071 207.6 207.051 207.52 207.751 207.52H210.951V210H201.031ZM219.048 194.72V197.4C219.048 200.82 220.508 204.18 223.628 205.52L222.128 207.66C220.008 206.7 218.588 204.88 217.768 202.62C216.948 205.08 215.448 207.06 213.248 208.1L211.668 205.92C214.888 204.54 216.408 200.98 216.408 197.4V194.72H219.048ZM224.528 193.28H227.168V211.76H224.528V193.28ZM230.066 194.68H238.926C238.926 199.68 235.846 203.14 230.366 204.72L229.266 202.62C233.366 201.5 235.646 199.36 236.066 196.78H230.066V194.68ZM234.646 205.16V209.3H244.526V211.4H232.006V205.16H234.646ZM243.886 198.44H246.346V200.6H243.886V206.48H241.246V193.3H243.886V198.44ZM252.956 203.92H256.416V200.9C256.416 200.04 256.476 198.7 256.516 197.82H256.436C256.076 198.62 255.676 199.44 255.256 200.24L252.956 203.92ZM256.416 210V206.16H250.096V204.16L255.616 195.18H259.156V203.92H260.896V206.16H259.156V210H256.416ZM264.274 210C264.534 204.86 265.394 201.58 268.214 197.66H261.554V195.18H271.394V196.98C267.954 201.18 267.494 204.2 267.254 210H264.274ZM284.211 199.4V197.74H277.031V199.4H284.211ZM286.831 193.88V201.46H274.411V193.88H277.031V195.76H284.211V193.88H286.831ZM276.851 206.34V209.3H287.131V211.4H274.211V206.34H276.851ZM272.271 202.74H288.971V204.82H282.171V207.72H279.531V204.82H272.271V202.74Z" fill="#232323"/>
<path d="M26.6731 202.42L25.7131 200.36C29.4731 199.9 31.4331 198.1 31.6931 196.34H26.3931V194.24H40.0531V196.34H34.8331C35.0931 198.1 37.0331 199.9 40.7731 200.36L39.8331 202.42C36.6131 201.98 34.3531 200.6 33.2531 198.72C32.1531 200.6 29.8931 201.98 26.6731 202.42ZM41.5731 203.48V205.58H34.5131V211.76H31.8731V205.58H24.9331V203.48H41.5731ZM49.0716 198.4V199.04C49.0716 201.64 50.3716 204.62 53.2516 206L51.8516 208C49.8916 207.1 48.5516 205.38 47.7916 203.34C46.9916 205.54 45.5716 207.4 43.5116 208.32L42.0916 206.3C45.0716 204.92 46.4516 201.8 46.4516 199.04V198.4H42.7116V196.3H46.4516V193.74H49.0916V196.3H52.7316V198.4H49.0716ZM59.5116 200.46V202.64H56.8316V211.72H54.1916V193.32H56.8316V200.46H59.5116ZM60.93 195.2H69.77C69.77 200.84 67.87 205.44 61.33 208.6L59.95 206.52C64.65 204.26 66.69 201.38 67.07 197.3H60.93V195.2ZM72.59 193.28H75.25V211.7H72.59V193.28ZM78.0684 194.68H86.9284C86.9284 199.68 83.8484 203.14 78.3684 204.72L77.2684 202.62C81.3684 201.5 83.6484 199.36 84.0684 196.78H78.0684V194.68ZM82.6484 205.16V209.3H92.5284V211.4H80.0084V205.16H82.6484ZM91.8884 198.44H94.3484V200.6H91.8884V206.48H89.2484V193.3H91.8884V198.44Z" fill="#232323"/>
<path d="M231.766 241C232.026 235.86 232.886 232.58 235.706 228.66H229.046V226.18H238.886V227.98C235.446 232.18 234.986 235.2 234.746 241H231.766ZM244.823 241.28C241.803 241.28 239.803 238.64 239.803 233.54C239.803 228.42 241.803 225.92 244.823 225.92C247.843 225.92 249.823 228.44 249.823 233.54C249.823 238.64 247.843 241.28 244.823 241.28ZM244.823 238.98C246.103 238.98 247.043 237.7 247.043 233.54C247.043 229.4 246.103 228.2 244.823 228.2C243.543 228.2 242.583 229.4 242.583 233.54C242.583 237.7 243.543 238.98 244.823 238.98ZM255.701 241.28C252.681 241.28 250.681 238.64 250.681 233.54C250.681 228.42 252.681 225.92 255.701 225.92C258.721 225.92 260.701 228.44 260.701 233.54C260.701 238.64 258.721 241.28 255.701 241.28ZM255.701 238.98C256.981 238.98 257.921 237.7 257.921 233.54C257.921 229.4 256.981 228.2 255.701 228.2C254.421 228.2 253.461 229.4 253.461 233.54C253.461 237.7 254.421 238.98 255.701 238.98ZM266.578 241.28C263.558 241.28 261.558 238.64 261.558 233.54C261.558 228.42 263.558 225.92 266.578 225.92C269.598 225.92 271.578 228.44 271.578 233.54C271.578 238.64 269.598 241.28 266.578 241.28ZM266.578 238.98C267.858 238.98 268.798 237.7 268.798 233.54C268.798 229.4 267.858 228.2 266.578 228.2C265.298 228.2 264.338 229.4 264.338 233.54C264.338 237.7 265.298 238.98 266.578 238.98ZM281.815 235H285.275V224.3H287.915V238.26H285.275V236.8H281.815V235ZM278.275 226.84C277.035 226.84 276.175 227.32 276.175 228.22C276.175 229.12 277.035 229.58 278.275 229.58C279.495 229.58 280.355 229.12 280.355 228.22C280.355 227.32 279.495 226.84 278.275 226.84ZM278.275 231.5C275.575 231.5 273.695 230.18 273.695 228.22C273.695 226.26 275.575 224.92 278.275 224.92C280.955 224.92 282.855 226.26 282.855 228.22C282.855 230.18 280.955 231.5 278.275 231.5ZM277.295 240.3H288.315V242.4H274.655V236.92H277.215V234.46C275.595 234.54 274.055 234.56 272.675 234.56L272.335 232.46C275.695 232.44 280.175 232.4 284.055 231.9L284.235 233.78C282.795 234.02 281.315 234.18 279.835 234.3V237.78H277.295V240.3Z" fill="#232323"/>
<path d="M26.6731 233.42L25.7131 231.36C29.4731 230.9 31.4331 229.1 31.6931 227.34H26.3931V225.24H40.0531V227.34H34.8331C35.0931 229.1 37.0331 230.9 40.7731 231.36L39.8331 233.42C36.6131 232.98 34.3531 231.6 33.2531 229.72C32.1531 231.6 29.8931 232.98 26.6731 233.42ZM41.5731 234.48V236.58H34.5131V242.76H31.8731V236.58H24.9331V234.48H41.5731ZM49.0716 229.4V230.04C49.0716 232.64 50.3716 235.62 53.2516 237L51.8516 239C49.8916 238.1 48.5516 236.38 47.7916 234.34C46.9916 236.54 45.5716 238.4 43.5116 239.32L42.0916 237.3C45.0716 235.92 46.4516 232.8 46.4516 230.04V229.4H42.7116V227.3H46.4516V224.74H49.0916V227.3H52.7316V229.4H49.0716ZM59.5116 231.46V233.64H56.8316V242.72H54.1916V224.32H56.8316V231.46H59.5116ZM66.21 234.92V238.44H70.27V234.92C69.63 235.04 68.95 235.1 68.23 235.1C67.51 235.1 66.85 235.04 66.21 234.92ZM68.23 227.28C65.67 227.28 63.97 228.32 63.97 230.16C63.97 231.98 65.67 233.04 68.23 233.04C70.79 233.04 72.51 231.98 72.51 230.16C72.51 228.32 70.79 227.28 68.23 227.28ZM72.89 238.44H76.59V240.58H59.91V238.44H63.59V233.94C62.19 233.08 61.35 231.76 61.37 230.16C61.37 227.14 64.27 225.2 68.23 225.2C72.21 225.2 75.11 227.14 75.11 230.16C75.11 231.76 74.27 233.08 72.89 233.94V238.44ZM81.9684 237.84V240.44H89.4684V237.84H81.9684ZM79.3684 242.5V235.78H92.0484V242.5H79.3684ZM91.7084 231.76H94.0884V233.86H77.4084V231.76H89.0884C89.4684 229.92 89.5284 228.5 89.5284 227.22H79.4684V225.12H92.1284V226.6C92.1284 228.08 92.1284 229.64 91.7084 231.76Z" fill="#232323"/>
<path d="M233.526 333.28C231.186 333.28 229.606 332.4 228.566 331.22L229.946 329.36C230.826 330.22 231.906 330.88 233.246 330.88C234.746 330.88 235.766 330.14 235.766 328.8C235.766 327.36 234.906 326.44 231.686 326.44V324.34C234.406 324.34 235.286 323.4 235.286 322.08C235.286 320.92 234.566 320.24 233.306 320.24C232.246 320.24 231.386 320.72 230.506 321.54L229.006 319.74C230.286 318.62 231.706 317.92 233.446 317.92C236.306 317.92 238.246 319.34 238.246 321.86C238.246 323.46 237.346 324.62 235.786 325.24V325.34C237.446 325.8 238.726 327.04 238.726 328.98C238.726 331.7 236.346 333.28 233.526 333.28ZM244.823 333.28C241.803 333.28 239.803 330.64 239.803 325.54C239.803 320.42 241.803 317.92 244.823 317.92C247.843 317.92 249.823 320.44 249.823 325.54C249.823 330.64 247.843 333.28 244.823 333.28ZM244.823 330.98C246.103 330.98 247.043 329.7 247.043 325.54C247.043 321.4 246.103 320.2 244.823 320.2C243.543 320.2 242.583 321.4 242.583 325.54C242.583 329.7 243.543 330.98 244.823 330.98ZM255.701 333.28C252.681 333.28 250.681 330.64 250.681 325.54C250.681 320.42 252.681 317.92 255.701 317.92C258.721 317.92 260.701 320.44 260.701 325.54C260.701 330.64 258.721 333.28 255.701 333.28ZM255.701 330.98C256.981 330.98 257.921 329.7 257.921 325.54C257.921 321.4 256.981 320.2 255.701 320.2C254.421 320.2 253.461 321.4 253.461 325.54C253.461 329.7 254.421 330.98 255.701 330.98ZM266.578 333.28C263.558 333.28 261.558 330.64 261.558 325.54C261.558 320.42 263.558 317.92 266.578 317.92C269.598 317.92 271.578 320.44 271.578 325.54C271.578 330.64 269.598 333.28 266.578 333.28ZM266.578 330.98C267.858 330.98 268.798 329.7 268.798 325.54C268.798 321.4 267.858 320.2 266.578 320.2C265.298 320.2 264.338 321.4 264.338 325.54C264.338 329.7 265.298 330.98 266.578 330.98ZM281.815 327H285.275V316.3H287.915V330.26H285.275V328.8H281.815V327ZM278.275 318.84C277.035 318.84 276.175 319.32 276.175 320.22C276.175 321.12 277.035 321.58 278.275 321.58C279.495 321.58 280.355 321.12 280.355 320.22C280.355 319.32 279.495 318.84 278.275 318.84ZM278.275 323.5C275.575 323.5 273.695 322.18 273.695 320.22C273.695 318.26 275.575 316.92 278.275 316.92C280.955 316.92 282.855 318.26 282.855 320.22C282.855 322.18 280.955 323.5 278.275 323.5ZM277.295 332.3H288.315V334.4H274.655V328.92H277.215V326.46C275.595 326.54 274.055 326.56 272.675 326.56L272.335 324.46C275.695 324.44 280.175 324.4 284.055 323.9L284.235 325.78C282.795 326.02 281.315 326.18 279.835 326.3V329.78H277.295V332.3Z" fill="#FF2F21"/>
<rect x="10" y="305" width="100" height="40" fill="#FF2F21"/>
<path d="M37.6731 320.6H33.7731C32.6531 323.34 30.0531 325.08 26.0131 325.96L25.1331 323.84C29.3131 323.02 31.1931 321.26 31.5131 319.1H26.1931V317H34.4131C34.4131 317.56 34.3731 318.1 34.2931 318.62H37.6731V316.3H40.3131V325.54H37.6731V324.16H33.5931V322.18H37.6731V320.6ZM30.8331 332.46H40.6931V334.54H28.1931V329.34H37.6731V328.3H28.1731V326.22H40.3131V331.3H30.8331V332.46ZM48.2516 320.28V321.18C48.2516 324.26 49.1516 327.36 51.8116 328.92L50.2716 330.84C48.6516 329.86 47.5916 328.28 46.9916 326.34C46.3516 328.44 45.2716 330.24 43.6116 331.28L42.0516 329.34C44.7316 327.64 45.6916 324.34 45.6916 321.18V320.28H42.7316V318.14H50.9316V320.28H48.2516ZM51.9916 322.58V316.6H54.4516V333.88H51.9916V324.72H49.6516V322.58H51.9916ZM55.7116 316.28H58.2116V334.7H55.7116V316.28ZM64.47 329.84V332.44H71.97V329.84H64.47ZM61.87 334.5V327.78H74.55V334.5H61.87ZM74.21 323.76H76.59V325.86H59.91V323.76H71.59C71.97 321.92 72.03 320.5 72.03 319.22H61.97V317.12H74.63V318.6C74.63 320.08 74.63 321.64 74.21 323.76ZM79.8484 321.9C79.8484 323.36 80.6084 324.2 81.6884 324.2C82.7684 324.2 83.5284 323.36 83.5284 321.9C83.5284 320.48 82.7684 319.62 81.6884 319.62C80.6084 319.62 79.8484 320.48 79.8484 321.9ZM85.8884 321.9C85.8884 324.58 84.1284 326.42 81.6884 326.42C79.2484 326.42 77.4684 324.58 77.4684 321.9C77.4684 319.26 79.2484 317.4 81.6884 317.4C84.1284 317.4 85.8884 319.26 85.8884 321.9ZM80.4284 330.22V328.14H93.1084V334.74H90.4684V330.22H80.4284ZM90.6084 316.3H93.1084V327.28H90.6084V322.88H89.2084V327.24H86.7484V316.62H89.2084V320.76H90.6084V316.3Z" fill="white"/>
<path d="M218.459 280.32V278.22H223.919V280.32H218.459ZM230.893 278.92H234.353V275.9C234.353 275.04 234.413 273.7 234.453 272.82H234.373C234.013 273.62 233.613 274.44 233.193 275.24L230.893 278.92ZM234.353 285V281.16H228.033V279.16L233.553 270.18H237.093V278.92H238.833V281.16H237.093V285H234.353ZM244.39 285.28C241.37 285.28 239.37 282.64 239.37 277.54C239.37 272.42 241.37 269.92 244.39 269.92C247.41 269.92 249.39 272.44 249.39 277.54C249.39 282.64 247.41 285.28 244.39 285.28ZM244.39 282.98C245.67 282.98 246.61 281.7 246.61 277.54C246.61 273.4 245.67 272.2 244.39 272.2C243.11 272.2 242.15 273.4 242.15 277.54C242.15 281.7 243.11 282.98 244.39 282.98ZM255.268 285.28C252.248 285.28 250.248 282.64 250.248 277.54C250.248 272.42 252.248 269.92 255.268 269.92C258.288 269.92 260.268 272.44 260.268 277.54C260.268 282.64 258.288 285.28 255.268 285.28ZM255.268 282.98C256.548 282.98 257.488 281.7 257.488 277.54C257.488 273.4 256.548 272.2 255.268 272.2C253.988 272.2 253.028 273.4 253.028 277.54C253.028 281.7 253.988 282.98 255.268 282.98ZM266.145 285.28C263.125 285.28 261.125 282.64 261.125 277.54C261.125 272.42 263.125 269.92 266.145 269.92C269.165 269.92 271.145 272.44 271.145 277.54C271.145 282.64 269.165 285.28 266.145 285.28ZM266.145 282.98C267.425 282.98 268.365 281.7 268.365 277.54C268.365 273.4 267.425 272.2 266.145 272.2C264.865 272.2 263.905 273.4 263.905 277.54C263.905 281.7 264.865 282.98 266.145 282.98ZM281.382 279H284.842V268.3H287.482V282.26H284.842V280.8H281.382V279ZM277.842 270.84C276.602 270.84 275.742 271.32 275.742 272.22C275.742 273.12 276.602 273.58 277.842 273.58C279.062 273.58 279.922 273.12 279.922 272.22C279.922 271.32 279.062 270.84 277.842 270.84ZM277.842 275.5C275.142 275.5 273.262 274.18 273.262 272.22C273.262 270.26 275.142 268.92 277.842 268.92C280.522 268.92 282.422 270.26 282.422 272.22C282.422 274.18 280.522 275.5 277.842 275.5ZM276.862 284.3H287.882V286.4H274.222V280.92H276.782V278.46C275.162 278.54 273.622 278.56 272.242 278.56L271.902 276.46C275.262 276.44 279.742 276.4 283.622 275.9L283.802 277.78C282.362 278.02 280.882 278.18 279.402 278.3V281.78H276.862V284.3Z" fill="#1959FF"/>
<rect x="10" y="257" width="100" height="40" fill="#1959FF"/>
<path d="M35.7531 269.66V271.64H24.8931V269.66H28.9931V268.16H31.6531V269.66H35.7531ZM28.3331 275.1C28.3331 275.86 29.1131 276.24 30.3331 276.24C31.5531 276.24 32.3331 275.86 32.3331 275.1C32.3331 274.32 31.5531 273.94 30.3331 273.94C29.1131 273.94 28.3331 274.32 28.3331 275.1ZM34.8531 275.1C34.8531 276.94 33.0731 278.1 30.3331 278.1C27.6131 278.1 25.8131 276.94 25.8131 275.1C25.8131 273.24 27.6131 272.08 30.3331 272.08C33.0731 272.08 34.8531 273.24 34.8531 275.1ZM29.8931 283.64V284.66H39.9531V286.58H27.2731V281.84H36.8131V280.88H27.2531V278.96H39.4131V283.64H29.8931ZM39.4131 272.2H41.8531V274.36H39.4131V278.24H36.7731V268.28H39.4131V272.2ZM57.7116 268.32V281.54H55.0516V268.32H57.7116ZM45.2516 274.16C45.2516 275.64 46.3316 276.54 47.6916 276.54C49.0716 276.54 50.1116 275.64 50.1116 274.16C50.1116 272.64 49.0716 271.76 47.6916 271.76C46.3316 271.76 45.2516 272.64 45.2516 274.16ZM52.6916 274.16C52.6916 276.84 50.5116 278.82 47.6916 278.82C44.8716 278.82 42.6716 276.84 42.6716 274.16C42.6716 271.44 44.8716 269.48 47.6916 269.48C50.5116 269.48 52.6916 271.44 52.6916 274.16ZM48.0916 284.3H58.1716V286.4H45.4516V280.24H48.0916V284.3ZM64.47 281.84V284.44H71.97V281.84H64.47ZM61.87 286.5V279.78H74.55V286.5H61.87ZM74.21 275.76H76.59V277.86H59.91V275.76H71.59C71.97 273.92 72.03 272.5 72.03 271.22H61.97V269.12H74.63V270.6C74.63 272.08 74.63 273.64 74.21 275.76ZM79.8484 273.9C79.8484 275.36 80.6084 276.2 81.6884 276.2C82.7684 276.2 83.5284 275.36 83.5284 273.9C83.5284 272.48 82.7684 271.62 81.6884 271.62C80.6084 271.62 79.8484 272.48 79.8484 273.9ZM85.8884 273.9C85.8884 276.58 84.1284 278.42 81.6884 278.42C79.2484 278.42 77.4684 276.58 77.4684 273.9C77.4684 271.26 79.2484 269.4 81.6884 269.4C84.1284 269.4 85.8884 271.26 85.8884 273.9ZM80.4284 282.22V280.14H93.1084V286.74H90.4684V282.22H80.4284ZM90.6084 268.3H93.1084V279.28H90.6084V274.88H89.2084V279.24H86.7484V268.62H89.2084V272.76H90.6084V268.3Z" fill="white"/>
</svg>
