<svg viewBox="0 0 100 78" fill="none" xmlns="http://www.w3.org/2000/svg">
<g filter="url(#filter0_d_384_5299)">
<rect x="4.5" y="0.5" width="91" height="69" rx="9.5" fill="white" stroke="#232323"/>
<path d="M32.6019 53.024H34.1619C34.1619 56.456 33.3459 59.312 29.2059 61.412L28.3539 60.2C31.8099 58.46 32.6019 56.336 32.6019 53.216V53.024ZM29.0379 53.024H33.5499V54.284H29.0379V53.024ZM32.6379 55.748V56.972L28.6539 57.356L28.4619 55.988L32.6379 55.748ZM35.5059 51.944H37.1139V63.056H35.5059V51.944ZM36.6939 56.192H38.6499V57.5H36.6939V56.192ZM40.6169 57.08H48.4289V58.352H40.6169V57.08ZM39.4529 60.428H49.5089V61.736H39.4529V60.428ZM40.6169 52.868H48.3449V54.164H42.2009V57.608H40.6169V52.868ZM58.184 51.956H59.78V57.536H58.184V51.956ZM54.476 52.376H56.216C56.216 55.328 54.512 57.056 51.14 57.788L50.612 56.504C53.396 55.952 54.476 54.728 54.476 53.24V52.376ZM51.248 52.376H55.148V53.648H51.248V52.376ZM55.784 53.336H58.388V54.548H55.784V53.336ZM55.712 55.496H58.328V56.696H55.712V55.496ZM52.436 57.944H59.78V61.004H54.056V62.384H52.46V59.828H58.184V59.192H52.436V57.944ZM52.46 61.712H60.008V62.96H52.46V61.712ZM69.5471 51.956H71.0591V63.068H69.5471V51.956ZM65.8871 55.748H67.7231V57.044H65.8871V55.748ZM67.3031 52.136H68.7911V62.564H67.3031V52.136ZM63.4871 53.768H64.6871V54.908C64.6871 57.404 64.0031 59.888 62.2391 60.992L61.2911 59.816C62.9231 58.796 63.4871 56.804 63.4871 54.908V53.768ZM63.8471 53.768H65.0351V54.908C65.0351 56.756 65.5871 58.628 67.1951 59.564L66.2591 60.728C64.4951 59.684 63.8471 57.356 63.8471 54.908V53.768ZM61.7111 53.072H66.6671V54.356H61.7111V53.072Z" fill="#232323"/>
<path d="M66.6375 36.6625H33.3605C33.1763 36.6625 32.9996 36.5894 32.8694 36.4591C32.7392 36.3289 32.666 36.1523 32.666 35.9681V15.4493C32.666 15.2651 32.7392 15.0885 32.8694 14.9583C32.9996 14.828 33.1763 14.7549 33.3605 14.7549H66.6382C66.8224 14.7549 66.9991 14.828 67.1293 14.9583C67.2595 15.0885 67.3327 15.2651 67.3327 15.4493V35.9681C67.3327 36.1523 67.2595 36.3289 67.1293 36.4591C66.9991 36.5894 66.8217 36.6625 66.6375 36.6625Z" fill="#92D3F5"/>
<path d="M66.6664 21.5279H33.3331C33.1489 21.5279 32.9723 21.4547 32.8421 21.3245C32.7118 21.1943 32.6387 21.0176 32.6387 20.8335V18.889C32.6387 18.7048 32.7118 18.5282 32.8421 18.398C32.9723 18.2677 33.1489 18.1946 33.3331 18.1946H66.6664C66.8506 18.1946 67.0273 18.2677 67.1575 18.398C67.2877 18.5282 67.3609 18.7048 67.3609 18.889V20.8335C67.3609 21.0176 67.2877 21.1943 67.1575 21.3245C67.0273 21.4547 66.8506 21.5279 66.6664 21.5279Z" fill="#3F3F3F"/>
<path d="M39.5814 33.1945H38.2293C37.6725 33.1928 37.139 32.9709 36.7452 32.5772C36.3515 32.1834 36.1296 31.6499 36.1279 31.0931V29.7403C36.1296 29.1836 36.3514 28.6502 36.745 28.2565C37.1386 27.8628 37.6719 27.6407 38.2286 27.6389H39.5807C40.1378 27.6404 40.6716 27.8623 41.0655 28.2562C41.4594 28.6501 41.6813 29.1839 41.6828 29.741V31.0931C41.6811 31.65 41.4591 32.1837 41.0652 32.5774C40.6714 32.9712 40.1383 33.193 39.5814 33.1945Z" fill="#FCEA2B"/>
<path d="M66.6375 36.6625H33.3605C33.1763 36.6625 32.9996 36.5894 32.8694 36.4591C32.7392 36.3289 32.666 36.1523 32.666 35.9681V15.4493C32.666 15.2651 32.7392 15.0885 32.8694 14.9583C32.9996 14.828 33.1763 14.7549 33.3605 14.7549H66.6382C66.8224 14.7549 66.9991 14.828 67.1293 14.9583C67.2595 15.0885 67.3327 15.2651 67.3327 15.4493V35.9681C67.3327 36.1523 67.2595 36.3289 67.1293 36.4591C66.9991 36.5894 66.8217 36.6625 66.6375 36.6625Z" stroke="black" stroke-width="0.555556" stroke-miterlimit="10"/>
<path d="M66.6664 21.5279H33.3331C33.1489 21.5279 32.9723 21.4547 32.8421 21.3245C32.7118 21.1943 32.6387 21.0176 32.6387 20.8335V18.889C32.6387 18.7048 32.7118 18.5282 32.8421 18.398C32.9723 18.2677 33.1489 18.1946 33.3331 18.1946H66.6664C66.8506 18.1946 67.0273 18.2677 67.1575 18.398C67.2877 18.5282 67.3609 18.7048 67.3609 18.889V20.8335C67.3609 21.0176 67.2877 21.1943 67.1575 21.3245C67.0273 21.4547 66.8506 21.5279 66.6664 21.5279Z" stroke="black" stroke-width="0.555556" stroke-miterlimit="10"/>
<path d="M39.5814 33.1945H38.2293C37.6725 33.1928 37.139 32.9709 36.7452 32.5772C36.3515 32.1834 36.1296 31.6499 36.1279 31.0931V29.7403C36.1296 29.1836 36.3514 28.6502 36.745 28.2565C37.1386 27.8628 37.6719 27.6407 38.2286 27.6389H39.5807C40.1378 27.6404 40.6716 27.8623 41.0655 28.2562C41.4594 28.6501 41.6813 29.1839 41.6828 29.741V31.0931C41.6811 31.65 41.4591 32.1837 41.0652 32.5774C40.6714 32.9712 40.1383 33.193 39.5814 33.1945Z" stroke="black" stroke-width="0.555556" stroke-miterlimit="10" stroke-linecap="round" stroke-linejoin="round"/>
</g>
<defs>
<filter id="filter0_d_384_5299" x="0" y="0" width="100" height="78" filterUnits="userSpaceOnUse" color-interpolation-filters="sRGB">
<feFlood flood-opacity="0" result="BackgroundImageFix"/>
<feColorMatrix in="SourceAlpha" type="matrix" values="0 0 0 0 0 0 0 0 0 0 0 0 0 0 0 0 0 0 127 0" result="hardAlpha"/>
<feOffset dy="4"/>
<feGaussianBlur stdDeviation="2"/>
<feComposite in2="hardAlpha" operator="out"/>
<feColorMatrix type="matrix" values="0 0 0 0 0 0 0 0 0 0 0 0 0 0 0 0 0 0 0.25 0"/>
<feBlend mode="normal" in2="BackgroundImageFix" result="effect1_dropShadow_384_5299"/>
<feBlend mode="normal" in="SourceGraphic" in2="effect1_dropShadow_384_5299" result="shape"/>
</filter>
</defs>
</svg>
