<svg viewBox="0 0 130 78" fill="none" xmlns="http://www.w3.org/2000/svg">
<g filter="url(#filter0_d_384_5260)">
<rect x="4.5" y="0.5" width="121" height="69" rx="9.5" fill="white" stroke="#232323"/>
<path d="M24.4418 54.968V56.18L17.6498 56.516L17.4578 55.172L24.4418 54.968ZM17.8298 52.568H24.7898V53.828H17.8298V52.568ZM16.6658 57.824H26.7098V59.108H16.6658V57.824ZM20.8778 58.844H22.4738V63.056H20.8778V58.844ZM24.0698 52.568H25.6058V53.564C25.6058 54.788 25.6058 56.156 25.1738 58.148L23.6258 57.968C24.0698 56.096 24.0698 54.752 24.0698 53.564V52.568ZM28.5689 52.364H36.8489V53.624H28.5689V52.364ZM28.6529 55.508H36.7649V56.756H28.6529V55.508ZM29.9849 52.856H31.5809V56.156H29.9849V52.856ZM33.8369 52.856H35.4329V56.156H33.8369V52.856ZM27.6929 57.764H37.7369V59.024H27.6929V57.764ZM31.9049 56.348H33.5009V58.508H31.9049V56.348ZM28.9049 61.604H36.6089V62.876H28.9049V61.604ZM28.9049 59.732H30.5009V62.06H28.9049V59.732ZM43.9467 52.808H45.2427V54.428C45.2427 57.176 44.2827 59.756 42.1827 60.788L41.2227 59.504C43.0947 58.628 43.9467 56.492 43.9467 54.428V52.808ZM44.2707 52.808H45.5427V54.428C45.5427 56.42 46.3347 58.448 48.1107 59.312L47.1507 60.584C45.1467 59.564 44.2707 57.092 44.2707 54.428V52.808ZM48.5547 51.956H50.1627V63.068H48.5547V51.956ZM49.8027 56.228H51.7707V57.56H49.8027V56.228ZM54.7458 55.676H56.3418V57.716H54.7458V55.676ZM58.6578 55.676H60.2418V57.716H58.6578V55.676ZM52.4898 57.224H62.5338V58.484H52.4898V57.224ZM57.4938 59.048C59.8938 59.048 61.3458 59.768 61.3458 61.052C61.3458 62.348 59.8938 63.068 57.4938 63.068C55.0818 63.068 53.6298 62.348 53.6298 61.052C53.6298 59.768 55.0818 59.048 57.4938 59.048ZM57.4938 60.248C56.0058 60.248 55.2498 60.5 55.2498 61.052C55.2498 61.616 56.0058 61.868 57.4938 61.868C58.9818 61.868 59.7378 61.616 59.7378 61.052C59.7378 60.5 58.9818 60.248 57.4938 60.248ZM57.5178 52.112C59.9658 52.112 61.5378 52.928 61.5378 54.26C61.5378 55.58 59.9658 56.372 57.5178 56.372C55.0578 56.372 53.4978 55.58 53.4978 54.26C53.4978 52.928 55.0578 52.112 57.5178 52.112ZM57.5178 53.336C55.9938 53.336 55.1418 53.636 55.1418 54.26C55.1418 54.872 55.9938 55.172 57.5178 55.172C59.0418 55.172 59.8938 54.872 59.8938 54.26C59.8938 53.636 59.0418 53.336 57.5178 53.336ZM64.0448 64.568L63.6848 63.608C64.6208 63.26 65.1368 62.624 65.1248 61.916L65.0648 60.668L65.6888 61.7C65.5088 61.88 65.2688 61.964 65.0048 61.964C64.4288 61.964 63.9008 61.58 63.9008 60.92C63.9008 60.284 64.4168 59.876 65.0528 59.876C65.8568 59.876 66.3128 60.524 66.3128 61.604C66.3128 63.02 65.5088 64.088 64.0448 64.568ZM77.8059 51.956H79.4139V63.068H77.8059V51.956ZM74.5299 53.108H76.1139C76.1139 56.504 74.9619 59.288 71.0139 61.196L70.1859 59.924C73.3779 58.388 74.5299 56.372 74.5299 53.396V53.108ZM70.7739 53.108H75.2859V54.368H70.7739V53.108ZM81.201 60.476H91.257V61.784H81.201V60.476ZM81.969 52.916H90.429V54.188H81.969V52.916ZM82.017 57.512H90.393V58.796H82.017V57.512ZM83.481 54.092H85.077V57.632H83.481V54.092ZM87.333 54.092H88.917V57.632H87.333V54.092ZM92.828 59.264H93.788C95.732 59.264 97.22 59.228 98.936 58.976L99.08 60.236C97.34 60.512 95.768 60.56 93.788 60.56H92.828V59.264ZM92.828 52.88H98.456V54.176H94.412V59.684H92.828V52.88ZM94.052 55.964H97.988V57.212H94.052V55.964ZM99.884 51.956H101.492V63.068H99.884V51.956ZM104.407 52.376H111.439V53.648H104.407V52.376ZM110.587 52.376H112.171V53.432C112.171 54.524 112.171 55.628 111.859 57.092L110.287 56.972C110.587 55.556 110.587 54.512 110.587 53.432V52.376ZM111.079 54.44V55.604L104.299 55.892L104.107 54.584L111.079 54.44ZM103.291 57.644H113.299V58.904H103.291V57.644ZM106.999 56.288H108.595V58.448H106.999V56.288ZM104.455 61.628H112.351V62.9H104.455V61.628ZM104.455 59.6H106.051V62.204H104.455V59.6Z" fill="#232323"/>
<path opacity="0.2" d="M77.5 28V39.25C77.5 39.5815 77.3683 39.8995 77.1339 40.1339C76.8995 40.3683 76.5815 40.5 76.25 40.5H53.75C53.4185 40.5 53.1005 40.3683 52.8661 40.1339C52.6317 39.8995 52.5 39.5815 52.5 39.25V28H77.5Z" fill="#FF2F01"/>
<path d="M78.75 19.25H73.2687C73.3297 19.1984 73.3922 19.1484 73.4516 19.0937C73.9261 18.6721 74.3086 18.1572 74.575 17.581C74.8414 17.0049 74.9861 16.3799 75 15.7453C75.0205 15.051 74.8989 14.3599 74.6427 13.7143C74.3865 13.0688 74.001 12.4824 73.5099 11.9912C73.0189 11.5 72.4326 11.1143 71.7871 10.8579C71.1416 10.6015 70.4505 10.4797 69.7563 10.5C69.1214 10.5137 68.4961 10.6582 67.9197 10.9247C67.3433 11.1911 66.828 11.5737 66.4062 12.0484C65.8227 12.7249 65.3483 13.4882 65 14.3109C64.6517 13.4882 64.1773 12.7249 63.5938 12.0484C63.172 11.5737 62.6567 11.1911 62.0803 10.9247C61.5039 10.6582 60.8786 10.5137 60.2437 10.5C59.5495 10.4797 58.8584 10.6015 58.2129 10.8579C57.5674 11.1143 56.9811 11.5 56.4901 11.9912C55.999 12.4824 55.6135 13.0688 55.3573 13.7143C55.1011 14.3599 54.9795 15.051 55 15.7453C55.0139 16.3799 55.1586 17.0049 55.425 17.581C55.6914 18.1572 56.0739 18.6721 56.5484 19.0937C56.6078 19.1453 56.6703 19.1953 56.7313 19.25H51.25C50.587 19.25 49.9511 19.5134 49.4822 19.9822C49.0134 20.4511 48.75 21.0869 48.75 21.75V26.75C48.75 27.413 49.0134 28.0489 49.4822 28.5178C49.9511 28.9866 50.587 29.25 51.25 29.25V39.25C51.25 39.913 51.5134 40.5489 51.9822 41.0178C52.4511 41.4866 53.087 41.75 53.75 41.75H76.25C76.913 41.75 77.5489 41.4866 78.0178 41.0178C78.4866 40.5489 78.75 39.913 78.75 39.25V29.25C79.413 29.25 80.0489 28.9866 80.5178 28.5178C80.9866 28.0489 81.25 27.413 81.25 26.75V21.75C81.25 21.0869 80.9866 20.4511 80.5178 19.9822C80.0489 19.5134 79.413 19.25 78.75 19.25ZM68.2812 13.7047C68.4792 13.4862 68.7202 13.311 68.9891 13.19C69.258 13.069 69.5489 13.0048 69.8438 13.0015H69.9203C70.2659 13.0037 70.6076 13.0748 70.9253 13.2107C71.243 13.3466 71.5305 13.5446 71.7707 13.793C72.011 14.0414 72.1992 14.3352 72.3245 14.6573C72.4497 14.9794 72.5094 15.3233 72.5 15.6687C72.4967 15.9636 72.4326 16.2545 72.3116 16.5234C72.1906 16.7923 72.0154 17.0333 71.7969 17.2312C70.3141 18.5437 67.8531 19.0062 66.3281 19.1687C66.5156 17.514 67.0312 15.1094 68.2812 13.7047ZM58.2672 13.7609C58.7515 13.2767 59.4073 13.0032 60.0922 13H60.1688C60.4636 13.0033 60.7545 13.0674 61.0234 13.1884C61.2923 13.3094 61.5333 13.4846 61.7313 13.7031C63.0422 15.1844 63.5047 17.6406 63.6672 19.1594C62.1484 19.0031 59.6922 18.5344 58.2109 17.2234C57.9925 17.0254 57.8172 16.7845 57.6962 16.5156C57.5752 16.2467 57.5111 15.9557 57.5078 15.6609C57.4981 15.3097 57.5599 14.9602 57.6893 14.6336C57.8188 14.307 58.0133 14.0101 58.2609 13.7609H58.2672ZM51.25 21.75H63.75V26.75H51.25V21.75ZM53.75 29.25H63.75V39.25H53.75V29.25ZM76.25 39.25H66.25V29.25H76.25V39.25ZM78.75 26.75H66.25V21.75H78.75V26.75Z" fill="#FF2F01"/>
</g>
<defs>
<filter id="filter0_d_384_5260" x="0" y="0" width="130" height="78" filterUnits="userSpaceOnUse" color-interpolation-filters="sRGB">
<feFlood flood-opacity="0" result="BackgroundImageFix"/>
<feColorMatrix in="SourceAlpha" type="matrix" values="0 0 0 0 0 0 0 0 0 0 0 0 0 0 0 0 0 0 127 0" result="hardAlpha"/>
<feOffset dy="4"/>
<feGaussianBlur stdDeviation="2"/>
<feComposite in2="hardAlpha" operator="out"/>
<feColorMatrix type="matrix" values="0 0 0 0 0 0 0 0 0 0 0 0 0 0 0 0 0 0 0.25 0"/>
<feBlend mode="normal" in2="BackgroundImageFix" result="effect1_dropShadow_384_5260"/>
<feBlend mode="normal" in="SourceGraphic" in2="effect1_dropShadow_384_5260" result="shape"/>
</filter>
</defs>
</svg>
