<svg width="320" height="57" viewBox="0 0 320 57" fill="none" xmlns="http://www.w3.org/2000/svg">
<rect y="15" width="320" height="15" rx="7.5" fill="white"/>
<rect y="15" width="105" height="15" rx="7.5" fill="#FF2F01"/>
<path d="M117.563 45.481H119.026C122.693 45.481 124.688 45.367 126.911 44.911L127.177 46.868C124.916 47.381 122.788 47.457 119.026 47.457H117.563V45.481ZM117.563 40.009H125.429V41.985H120.071V46.583H117.563V40.009ZM128.279 39.097H130.806V47.837H128.279V39.097ZM130.103 42.403H133.143V44.455H130.103V42.403ZM119.178 48.559H130.806V53.423H121.724V55.532H119.216V51.561H128.317V50.535H119.178V48.559ZM119.216 54.506H131.319V56.501H119.216V54.506ZM137.719 40.009H139.828V41.586C139.828 45.12 138.251 48.217 134.793 49.376L133.482 47.343C136.484 46.374 137.719 43.999 137.719 41.586V40.009ZM138.251 40.009H140.284V41.472C140.284 43.809 141.424 45.975 144.217 46.868L142.906 48.844C139.657 47.723 138.251 44.892 138.251 41.472V40.009ZM145.832 39.097H148.359V49.395H145.832V39.097ZM142.393 49.851C146.117 49.851 148.416 51.124 148.416 53.271C148.416 55.437 146.117 56.691 142.393 56.691C138.669 56.691 136.37 55.437 136.37 53.271C136.37 51.124 138.669 49.851 142.393 49.851ZM142.393 51.808C140.113 51.808 138.897 52.283 138.897 53.271C138.897 54.259 140.113 54.753 142.393 54.753C144.692 54.753 145.908 54.259 145.908 53.271C145.908 52.283 144.692 51.808 142.393 51.808ZM142.621 42.289H146.193V44.341H142.621V42.289ZM150.312 46.868H166.253V48.711H150.312V46.868ZM152.098 49.718H164.353V53.898H154.644V55.399H152.136V52.302H161.864V51.428H152.098V49.718ZM152.136 54.867H164.847V56.577H152.136V54.867ZM152.269 39.382H164.315V43.524H154.796V44.968H152.288V41.928H161.826V41.073H152.269V39.382ZM152.288 44.379H164.638V46.089H152.288V44.379ZM154.226 47.495H156.734V50.801H154.226V47.495ZM159.831 47.495H162.339V50.801H159.831V47.495ZM176.056 55.1889C175.048 55.1889 174.151 55.0157 173.364 54.6694C172.581 54.3185 171.962 53.8372 171.508 53.2255C171.058 52.6093 170.827 51.8986 170.813 51.0934H173.755C173.773 51.4308 173.883 51.7276 174.085 51.984C174.292 52.2359 174.567 52.4316 174.909 52.571C175.25 52.7105 175.635 52.7802 176.062 52.7802C176.508 52.7802 176.901 52.7015 177.243 52.544C177.585 52.3866 177.853 52.1684 178.046 51.8896C178.239 51.6107 178.336 51.2891 178.336 50.9247C178.336 50.5559 178.233 50.2298 178.026 49.9464C177.823 49.6585 177.531 49.4336 177.149 49.2717C176.771 49.1097 176.321 49.0288 175.799 49.0288H174.511V46.8832H175.799C176.24 46.8832 176.629 46.8067 176.967 46.6538C177.308 46.5008 177.574 46.2894 177.763 46.0195C177.952 45.7451 178.046 45.4258 178.046 45.0614C178.046 44.7151 177.963 44.4115 177.796 44.1506C177.634 43.8852 177.405 43.6783 177.108 43.5298C176.816 43.3814 176.474 43.3072 176.083 43.3072C175.687 43.3072 175.325 43.3791 174.996 43.5231C174.668 43.6625 174.405 43.8627 174.207 44.1236C174.009 44.3845 173.903 44.6903 173.89 45.0412H171.09C171.103 44.245 171.33 43.5433 171.771 42.9361C172.212 42.3288 172.806 41.8543 173.552 41.5124C174.304 41.1661 175.152 40.9929 176.096 40.9929C177.05 40.9929 177.884 41.1661 178.599 41.5124C179.315 41.8588 179.87 42.3266 180.266 42.9158C180.666 43.5006 180.864 44.1573 180.86 44.886C180.864 45.6597 180.623 46.3052 180.138 46.8224C179.656 47.3397 179.029 47.6681 178.255 47.8075V47.9155C179.272 48.0459 180.045 48.399 180.576 48.9748C181.112 49.546 181.377 50.2612 181.372 51.1204C181.377 51.9076 181.15 52.607 180.691 53.2188C180.237 53.8305 179.609 54.3118 178.808 54.6626C178.008 55.0135 177.09 55.1889 176.056 55.1889ZM187.78 55.1889C186.772 55.1889 185.875 55.0157 185.088 54.6694C184.305 54.3185 183.687 53.8372 183.232 53.2255C182.783 52.6093 182.551 51.8986 182.538 51.0934H185.479C185.497 51.4308 185.607 51.7276 185.81 51.984C186.017 52.2359 186.291 52.4316 186.633 52.571C186.975 52.7105 187.359 52.7802 187.787 52.7802C188.232 52.7802 188.626 52.7015 188.968 52.544C189.309 52.3866 189.577 52.1684 189.77 51.8896C189.964 51.6107 190.061 51.2891 190.061 50.9247C190.061 50.5559 189.957 50.2298 189.75 49.9464C189.548 49.6585 189.255 49.4336 188.873 49.2717C188.495 49.1097 188.045 49.0288 187.524 49.0288H186.235V46.8832H187.524C187.964 46.8832 188.354 46.8067 188.691 46.6538C189.033 46.5008 189.298 46.2894 189.487 46.0195C189.676 45.7451 189.77 45.4258 189.77 45.0614C189.77 44.7151 189.687 44.4115 189.521 44.1506C189.359 43.8852 189.13 43.6783 188.833 43.5298C188.54 43.3814 188.198 43.3072 187.807 43.3072C187.411 43.3072 187.049 43.3791 186.721 43.5231C186.392 43.6625 186.129 43.8627 185.931 44.1236C185.733 44.3845 185.628 44.6903 185.614 45.0412H182.814C182.828 44.245 183.055 43.5433 183.496 42.9361C183.936 42.3288 184.53 41.8543 185.277 41.5124C186.028 41.1661 186.876 40.9929 187.821 40.9929C188.774 40.9929 189.609 41.1661 190.324 41.5124C191.039 41.8588 191.594 42.3266 191.99 42.9158C192.391 43.5006 192.589 44.1573 192.584 44.886C192.589 45.6597 192.348 46.3052 191.862 46.8224C191.381 47.3397 190.753 47.6681 189.98 47.8075V47.9155C190.996 48.0459 191.77 48.399 192.301 48.9748C192.836 49.546 193.101 50.2612 193.097 51.1204C193.101 51.9076 192.874 52.607 192.415 53.2188C191.961 53.8305 191.334 54.3118 190.533 54.6626C189.732 55.0135 188.815 55.1889 187.78 55.1889ZM201.96 52.4091V51.6804C201.96 51.1271 202.077 50.6188 202.311 50.1555C202.55 49.6877 202.894 49.3144 203.344 49.0355C203.798 48.7521 204.351 48.6104 205.003 48.6104C205.665 48.6104 206.22 48.7499 206.67 49.0288C207.124 49.3076 207.466 49.681 207.696 50.1488C207.929 50.6121 208.046 51.1226 208.046 51.6804V52.4091C208.046 52.9624 207.929 53.4729 207.696 53.9407C207.462 54.404 207.118 54.7751 206.663 55.054C206.209 55.3374 205.656 55.479 205.003 55.479C204.342 55.479 203.787 55.3374 203.337 55.054C202.887 54.7751 202.545 54.404 202.311 53.9407C202.077 53.4729 201.96 52.9624 201.96 52.4091ZM203.924 51.6804V52.4091C203.924 52.7285 204 53.0298 204.153 53.3132C204.311 53.5966 204.594 53.7383 205.003 53.7383C205.413 53.7383 205.692 53.5988 205.84 53.32C205.993 53.0411 206.069 52.7375 206.069 52.4091V51.6804C206.069 51.352 205.997 51.0462 205.854 50.7628C205.71 50.4794 205.426 50.3377 205.003 50.3377C204.599 50.3377 204.317 50.4794 204.16 50.7628C204.003 51.0462 203.924 51.352 203.924 51.6804ZM194.869 44.5014V43.7727C194.869 43.215 194.988 42.7044 195.227 42.2411C195.465 41.7733 195.809 41.4 196.259 41.1211C196.713 40.8422 197.262 40.7028 197.905 40.7028C198.571 40.7028 199.129 40.8422 199.579 41.1211C200.029 41.4 200.37 41.7733 200.604 42.2411C200.838 42.7044 200.955 43.215 200.955 43.7727V44.5014C200.955 45.0592 200.836 45.5697 200.598 46.033C200.364 46.4963 200.02 46.8674 199.565 47.1463C199.115 47.4207 198.562 47.5579 197.905 47.5579C197.249 47.5579 196.693 47.4184 196.239 47.1396C195.789 46.8562 195.447 46.4851 195.213 46.0263C194.984 45.563 194.869 45.0547 194.869 44.5014ZM196.846 43.7727V44.5014C196.846 44.8298 196.923 45.1334 197.076 45.4123C197.233 45.6912 197.51 45.8306 197.905 45.8306C198.319 45.8306 198.6 45.6912 198.749 45.4123C198.902 45.1334 198.978 44.8298 198.978 44.5014V43.7727C198.978 43.4444 198.906 43.1385 198.762 42.8551C198.618 42.5717 198.333 42.43 197.905 42.43C197.505 42.43 197.228 42.574 197.076 42.8619C196.923 43.1497 196.846 43.4534 196.846 43.7727ZM195.76 55L205.26 41.1818H207.028L197.528 55H195.76Z" fill="white"/>
<g clip-path="url(#clip0_221_7787)">
<path d="M113.5 4.50008C113.25 5.08341 113.083 5.87508 113.042 6.37508C112.375 6.37508 111.833 6.91675 111.833 7.58341C111.833 8.25008 112.375 8.79175 113.042 8.79175C113.125 8.79175 113.208 8.79175 113.292 8.75008C113.208 10.5417 111.75 11.9584 109.917 11.9584C108.083 11.9584 106.625 10.5417 106.542 8.75008C107.083 8.66675 107.542 8.16675 107.542 7.58341C107.542 6.91675 107 6.37508 106.333 6.37508H106.208C106.042 5.54175 105.583 4.20841 105.042 4.20841C104.5 4.20841 104.042 5.50008 103.875 6.37508C103.792 6.37508 103.708 6.33341 103.625 6.33341C102.958 6.33341 102.417 6.87508 102.417 7.54175C102.417 8.12508 102.833 8.62508 103.417 8.75008C103.333 10.5417 101.875 11.9584 100.042 11.9584C98.2083 11.9584 96.75 10.5001 96.6666 8.70841C97.2083 8.58341 97.5833 8.12508 97.5833 7.54175C97.5833 6.87508 97.0416 6.33341 96.375 6.33341H96.25C96.0833 5.50008 95.625 4.16675 95.0833 4.16675C94.5416 4.16675 94.0833 5.45841 93.9166 6.33341C93.8333 6.33341 93.75 6.29175 93.6666 6.29175C93 6.29175 92.4583 6.83341 92.4583 7.50008C92.4583 8.12508 92.9166 8.62508 93.5416 8.70841C93.4583 10.5001 91.9583 11.9167 90.1666 11.9167C88.3333 11.9167 86.875 10.5001 86.7916 8.70841C86.875 8.70841 86.9583 8.75008 87.0416 8.75008C87.7083 8.75008 88.25 8.20841 88.25 7.54175C88.25 6.87508 87.7083 6.33341 87.0416 6.33341H86.9583C86.875 5.79175 86.75 5.08341 86.5833 4.50008C86.4583 4.04175 85.8333 4.12508 85.8333 4.62508V24.1251H114.333V4.70841C114.25 4.20841 113.708 4.08341 113.5 4.50008Z" fill="#FFB636"/>
<path d="M114.5 18.1667H85.5C85.2083 18.1667 85 17.9583 85 17.6667V16.25C85 15.9583 85.2083 15.75 85.5 15.75H114.458C114.75 15.75 114.958 15.9583 114.958 16.25V17.6667C115 17.9583 114.792 18.1667 114.5 18.1667ZM115 25.25V23.8333C115 23.5417 114.792 23.3333 114.5 23.3333H85.5C85.2083 23.3333 85 23.5417 85 23.8333V25.25C85 25.5417 85.2083 25.75 85.5 25.75H114.458C114.792 25.75 115 25.5417 115 25.25Z" fill="#FFD469"/>
<path d="M111.833 20.8333C111.833 21.5833 111.25 22.1667 110.5 22.1667C109.75 22.1667 109.167 21.5833 109.167 20.8333C109.167 20.0833 109.75 19.5 110.5 19.5C111.25 19.5 111.833 20.0833 111.833 20.8333ZM100 19.5C99.25 19.5 98.6667 20.0833 98.6667 20.8333C98.6667 21.5833 99.25 22.1667 100 22.1667C100.75 22.1667 101.333 21.5833 101.333 20.8333C101.333 20.0833 100.75 19.5 100 19.5ZM89.5 19.5C88.75 19.5 88.1667 20.0833 88.1667 20.8333C88.1667 21.5833 88.75 22.1667 89.5 22.1667C90.25 22.1667 90.8334 21.5417 90.8334 20.8333C90.8334 20.125 90.25 19.5 89.5 19.5Z" fill="#FFC7EF"/>
</g>
<defs>
<clipPath id="clip0_221_7787">
<rect width="30" height="30" fill="white" transform="translate(85)"/>
</clipPath>
</defs>
</svg>
